<svg width="203" height="32" viewBox="0 0 203 32" fill="none" xmlns="http://www.w3.org/2000/svg">
<rect width="203" height="32" fill="#1E1E1E"/>
<path d="M-800 -238C-800 -265.614 -777.614 -288 -750 -288H590C617.614 -288 640 -265.614 640 -238V2520C640 2547.61 617.614 2570 590 2570H-750C-777.614 2570 -800 2547.61 -800 2520V-238Z" fill="#242424"/>
<rect width="1280" height="848" transform="translate(-720 -64)" fill="#FEE7D6"/>
<rect width="624" height="848" transform="translate(-64 -64)" fill="#FEE7D6"/>
<path d="M31 7.35898L27.4779 7.29676L25.692 4.40939L24.8083 7.76347L21 8.41685L24.4599 9.87921L24.771 10.0099L24.0367 13.1835L26.1898 11.2731L29.687 13.1835L28.2744 9.3316L31 7.35898Z" fill="#E43A12"/>
<path d="M4.19731 5.03806L6.60556 13.3426L1 19.6955L9.67831 19.3633L13.8306 28L15.2008 18.8651V18.0346L23.2977 17.4948L17.1939 13.7162L19.1869 4L10.8824 10.1453L4.19731 5.03806Z" fill="#E43A12"/>
<path d="M8.06548 29.625L6.79762 27.4881L7.88094 25.3452L5.52976 26.0536L3.74404 24L4.14284 26.625L4.17857 26.8571L2 27.5952L3.94046 28.1905L4.08927 31L5.87499 28.7321L8.06548 29.625Z" fill="#E43A12"/>
<path d="M21.7911 22.3185L22.387 24.3733L21 25.9452L23.1473 25.863L24.1747 28L24.4213 25.6884V25.4829L26.4247 25.339L24.9144 24.4144L25.4075 22L23.3528 23.5308L21.7911 22.3185Z" fill="#E43A12"/>
<text fill="#292524" xml:space="preserve" style="white-space: pre" font-family="Schoolbell" font-size="20" letter-spacing="0em"><tspan x="40" y="22.2109">Estrelas do Amanh&#xe3;</tspan></text>
</svg>
