<svg width="20" height="20" viewBox="0 0 20 20" fill="none" xmlns="http://www.w3.org/2000/svg">
<rect width="20" height="20" fill="#1E1E1E"/>
<path d="M-144 -1848C-144 -1875.61 -121.614 -1898 -94 -1898H1246C1273.61 -1898 1296 -1875.61 1296 -1848V910C1296 937.614 1273.61 960 1246 960H-94C-121.614 960 -144 937.614 -144 910V-1848Z" fill="#242424"/>
<rect width="1280" height="848" transform="translate(-64 -1674)" fill="#FEE7D6"/>
<rect width="656" height="2554" transform="translate(-64 -1674)" fill="white"/>
<path d="M10 18.3333C14.6024 18.3333 18.3334 14.6023 18.3334 9.99996C18.3334 5.39759 14.6024 1.66663 10 1.66663C5.39765 1.66663 1.66669 5.39759 1.66669 9.99996C1.66669 14.6023 5.39765 18.3333 10 18.3333Z" stroke="#DC2626" stroke-width="1.25"/>
<path d="M9.99335 12.5H10.0008" stroke="#DC2626" stroke-width="1.66667" stroke-linecap="round" stroke-linejoin="round"/>
<path d="M10 9.99996V6.66663" stroke="#DC2626" stroke-width="1.25" stroke-linecap="round" stroke-linejoin="round"/>
</svg>
