<svg width="24" height="24" viewBox="0 0 24 24" fill="none" xmlns="http://www.w3.org/2000/svg">
<rect width="24" height="24" fill="#1E1E1E"/>
<path d="M-204 -2901C-204 -2928.61 -181.614 -2951 -154 -2951H2162C2189.61 -2951 2212 -2928.61 2212 -2901V2606C2212 2633.61 2189.61 2656 2162 2656H-154C-181.614 2656 -204 2633.61 -204 2606V-2901Z" fill="#242424"/>
<rect x="-124" y="-184" width="1092" height="490" rx="20" fill="white"/>
<path d="M18.593 8.19486C19.0376 8.52237 19.1326 9.14837 18.8051 9.59306C18.5507 9.93847 18.2963 10.2668 18.0731 10.5528C17.6276 11.1236 17.0143 11.8882 16.3479 12.6556C15.6859 13.4181 14.9518 14.2064 14.2666 14.8119C13.9251 15.1136 13.5721 15.3911 13.2279 15.5986C12.9112 15.7895 12.476 16 11.9999 16C11.5238 16 11.0885 15.7895 10.7718 15.5986C10.4276 15.3911 10.0747 15.1136 9.7332 14.8119C9.04791 14.2064 8.31387 13.4181 7.65183 12.6556C6.98548 11.8882 6.37216 11.1236 5.92664 10.5528C5.70347 10.2668 5.44902 9.93847 5.19463 9.59307C4.86712 9.14837 4.96211 8.52237 5.4068 8.19486C5.58556 8.0632 5.79362 7.99983 5.99982 8H11.9999H17.9999C18.2061 7.99983 18.4142 8.0632 18.593 8.19486Z" fill="#8F8881"/>
</svg>
